<mxfile host="drawio-plugin" modified="2022-02-02T08:23:17.233Z" agent="5.0 (Macintosh; Intel Mac OS X 12_1_0) AppleWebKit/537.36 (KHTML, like Gecko) Chrome/89.0.4389.114 Safari/537.36" etag="hmsUdo-P40MIuj1jI1eo" version="15.5.4" type="embed"><diagram id="DWjpSvbVxY2pOprUcE6g" name="Page-1"><mxGraphModel dx="980" dy="683" grid="1" gridSize="10" guides="1" tooltips="1" connect="1" arrows="1" fold="1" page="1" pageScale="1" pageWidth="827" pageHeight="1169" math="0" shadow="0"><root><mxCell id="0"/><mxCell id="1" parent="0"/><mxCell id="WkdalmxvpJmTztUUumEF-3" value="Domain" style="ellipse;whiteSpace=wrap;html=1;verticalAlign=top;" parent="1" vertex="1"><mxGeometry x="240" y="210" width="575.5" height="310" as="geometry"/></mxCell><mxCell id="WkdalmxvpJmTztUUumEF-23" value="Analytics" style="rounded=0;whiteSpace=wrap;html=1;verticalAlign=top;" parent="1" vertex="1"><mxGeometry x="415.5" y="270" width="314.5" height="190" as="geometry"/></mxCell><mxCell id="WkdalmxvpJmTztUUumEF-17" value="Analysis" style="rounded=0;whiteSpace=wrap;html=1;fillColor=#f5f5f5;fontColor=#333333;strokeColor=#666666;" parent="1" vertex="1"><mxGeometry x="595.5" y="300" width="120" height="60" as="geometry"/></mxCell><mxCell id="WkdalmxvpJmTztUUumEF-19" style="edgeStyle=orthogonalEdgeStyle;rounded=0;orthogonalLoop=1;jettySize=auto;html=1;exitX=1;exitY=0.5;exitDx=0;exitDy=0;" parent="1" source="WkdalmxvpJmTztUUumEF-18" target="WkdalmxvpJmTztUUumEF-17" edge="1"><mxGeometry relative="1" as="geometry"/></mxCell><mxCell id="WkdalmxvpJmTztUUumEF-25" value="" style="edgeStyle=orthogonalEdgeStyle;rounded=0;orthogonalLoop=1;jettySize=auto;html=1;startArrow=classic;startFill=1;endArrow=none;endFill=0;" parent="1" source="WkdalmxvpJmTztUUumEF-18" target="WkdalmxvpJmTztUUumEF-24" edge="1"><mxGeometry relative="1" as="geometry"/></mxCell><mxCell id="WkdalmxvpJmTztUUumEF-18" value="Information Objects" style="rounded=0;whiteSpace=wrap;html=1;fillColor=#f5f5f5;fontColor=#333333;strokeColor=#666666;" parent="1" vertex="1"><mxGeometry x="435.5" y="330" width="120" height="60" as="geometry"/></mxCell><mxCell id="WkdalmxvpJmTztUUumEF-24" value="Operational" style="rounded=0;whiteSpace=wrap;html=1;fillColor=#f5f5f5;fontColor=#333333;strokeColor=#666666;" parent="1" vertex="1"><mxGeometry x="260" y="330" width="120" height="60" as="geometry"/></mxCell><mxCell id="WkdalmxvpJmTztUUumEF-41" value="Domain" style="ellipse;whiteSpace=wrap;html=1;verticalAlign=top;" parent="1" vertex="1"><mxGeometry x="70" y="264" width="140" height="100" as="geometry"/></mxCell><mxCell id="WkdalmxvpJmTztUUumEF-42" value="Data Product" style="rounded=0;whiteSpace=wrap;html=1;fillColor=#f5f5f5;fontColor=#333333;strokeColor=#666666;" parent="1" vertex="1"><mxGeometry x="97" y="294" width="90" height="40" as="geometry"/></mxCell><mxCell id="WkdalmxvpJmTztUUumEF-45" style="rounded=0;orthogonalLoop=1;jettySize=auto;html=1;startArrow=classic;startFill=1;endArrow=none;endFill=0;exitX=0;exitY=0.25;exitDx=0;exitDy=0;entryX=1;entryY=0.5;entryDx=0;entryDy=0;" parent="1" source="WkdalmxvpJmTztUUumEF-17" target="WkdalmxvpJmTztUUumEF-42" edge="1"><mxGeometry relative="1" as="geometry"><mxPoint x="605.5" y="435" as="sourcePoint"/><mxPoint x="230" y="315" as="targetPoint"/></mxGeometry></mxCell><mxCell id="3" value="" style="rounded=0;whiteSpace=wrap;html=1;fillColor=none;strokeColor=none;" vertex="1" parent="1"><mxGeometry x="56" y="197" width="889" height="337" as="geometry"/></mxCell></root></mxGraphModel></diagram></mxfile>